# xmcd CD database file
#
# Track frame offsets:
#	150
#	16110
#	38065
#	55600
#	73565
#	96662
#	116889
#	134461
#	153949
#	164199
#	183264
#
# Disc length: 2745 seconds
#
# Revision: 1
# Processed by: cddbd v1.5PL3 Copyright (c) Steve Scherf et al.
# Submitted via: CDex 1.40Beta8
#
DISCID=950ab70b
DTITLE=??? - LOVE PUNCH
DYEAR=2004
DGENRE=Jazz
TTITLE0=pretty voice
TTITLE1=?????
TTITLE2=?????
TTITLE3=GIRLY
TTITLE4=?????????
TTITLE5=?????
TTITLE6=????????
TTITLE7=???????
TTITLE8=???
TTITLE9=????
TTITLE10=Always Together
EXTD=YEAR: 2004 ID3G: 8
EXTT0=
EXTT1=
EXTT2=
EXTT3=
EXTT4=
EXTT5=
EXTT6=
EXTT7=
EXTT8=
EXTT9=
EXTT10=
PLAYORDER=
